<svg width="1973" height="428" viewBox="0 0 1973 428" fill="none" xmlns="http://www.w3.org/2000/svg">
<path d="M139.071 234.479C123.176 222.16 104.102 214.61 78.6706 214.61C33.7673 214.61 1.18266 242.426 1.18266 281.766C1.18266 321.106 33.7673 348.923 78.6706 348.923C102.513 348.923 124.369 341.373 139.071 327.067V344.154H185.961V222.955C185.961 170.104 165.695 133.546 97.7445 133.546C66.352 133.546 36.5489 143.878 12.7065 164.144L39.7279 191.165C55.2255 178.449 73.5047 172.091 92.1813 172.091C127.945 172.091 139.071 189.178 139.071 215.008V234.479ZM90.5918 310.775C65.1598 310.775 48.8675 301.238 48.8675 281.766C48.8675 262.295 65.1598 252.758 90.5918 252.758C109.268 252.758 125.958 259.116 139.071 271.037V292.496C126.355 304.814 108.474 310.775 90.5918 310.775Z" fill="#002D4B"/>
<path d="M415.814 241.234C415.814 175.27 383.23 133.546 326.803 133.546C302.96 133.546 280.707 143.083 264.812 158.183V138.314H217.922V428.397H264.812V324.285C280.707 339.386 302.96 348.923 326.803 348.923C383.23 348.923 415.814 307.198 415.814 241.234ZM314.881 310.377C297.397 310.377 277.131 302.43 264.812 288.522V193.947C277.131 180.039 297.397 172.091 314.881 172.091C351.44 172.091 368.129 198.318 368.129 241.234C368.129 284.151 351.44 310.377 314.881 310.377Z" fill="#002D4B"/>
<path d="M638.095 241.234C638.095 175.27 605.511 133.546 549.084 133.546C525.241 133.546 502.988 143.083 487.093 158.183V138.314H440.203V428.397H487.093V324.285C502.988 339.386 525.241 348.923 549.084 348.923C605.511 348.923 638.095 307.198 638.095 241.234ZM537.162 310.377C519.678 310.377 499.412 302.43 487.093 288.522V193.947C499.412 180.039 519.678 172.091 537.162 172.091C573.721 172.091 590.41 198.318 590.41 241.234C590.41 284.151 573.721 310.377 537.162 310.377Z" fill="#002D4B"/>
<path d="M856.005 241.234C856.005 176.86 815.87 133.546 753.483 133.546C691.095 133.546 650.96 176.86 650.96 241.234C650.96 305.609 691.095 348.923 753.483 348.923C815.87 348.923 856.005 305.609 856.005 241.234ZM808.32 241.234C808.32 284.151 788.054 310.775 753.483 310.775C718.911 310.775 698.645 284.151 698.645 241.234C698.645 198.318 718.911 171.694 753.483 171.694C788.054 171.694 808.32 198.318 808.32 241.234Z" fill="#002D4B"/>
<path d="M879.767 344.154H926.657V138.314H879.767V344.154ZM932.22 79.1058C932.22 62.8135 919.504 50.4949 903.212 50.4949C886.92 50.4949 874.204 62.8135 874.204 79.1058C874.204 95.3981 886.92 107.717 903.212 107.717C919.504 107.717 932.22 95.3981 932.22 79.1058Z" fill="#002D4B"/>
<path d="M1064.04 171.694C1091.06 171.694 1103.77 188.384 1103.77 217.392V344.154H1150.66V210.637C1150.66 160.567 1121.26 133.546 1077.94 133.546C1048.14 133.546 1024.7 146.262 1008.8 162.157V138.314H961.912V344.154H1008.8V199.51C1019.93 185.205 1040.99 171.694 1064.04 171.694Z" fill="#002D4B"/>
<path d="M1261.11 348.923C1269.45 348.923 1278.59 348.525 1286.14 347.73V310.377C1281.38 310.775 1275.02 310.775 1269.06 310.775C1244.42 310.775 1236.87 300.046 1236.87 276.998V175.668H1286.14V138.314H1236.87V76.7215H1189.98V138.314H1153.82V175.668H1189.98V275.408C1189.98 327.067 1211.44 348.923 1261.11 348.923Z" fill="#002D4B"/>
<path fill-rule="evenodd" clip-rule="evenodd" d="M13.6145 163.379C37.3034 143.618 66.7492 133.546 97.7445 133.546C165.695 133.546 185.961 170.104 185.961 222.955V344.154H139.071V327.067C138.682 327.446 138.288 327.82 137.889 328.189C123.21 341.767 101.882 348.923 78.6705 348.923C33.7673 348.923 1.18266 321.106 1.18266 281.766C1.18266 242.426 33.7673 214.61 78.6705 214.61C103.475 214.61 122.231 221.792 137.889 233.576C138.285 233.874 138.679 234.175 139.071 234.479V215.008C139.071 189.178 127.945 172.091 92.1813 172.091C73.5047 172.091 55.2255 178.449 39.7279 191.165L12.7065 164.144C13.0082 163.887 13.3109 163.632 13.6145 163.379ZM137.889 232.1V215.008C137.889 202.235 135.134 191.87 128.187 184.686C121.246 177.507 109.897 173.274 92.1813 173.274C73.7809 173.274 55.7663 179.535 40.4781 192.079L39.6495 192.759L10.9634 164.073L11.9405 163.243C36.0093 142.784 66.0882 132.363 97.7445 132.363C131.925 132.363 154.368 141.563 168.231 157.66C182.062 173.72 187.144 196.414 187.144 222.955V345.337H137.889V329.788C122.978 343.136 101.691 350.105 78.6705 350.105C33.284 350.105 0 321.917 0 281.766C0 241.615 33.284 213.428 78.6705 213.428C103.362 213.428 122.173 220.481 137.889 232.1ZM60.8471 302.587C67.8283 307.225 77.9949 309.592 90.5918 309.592C108.059 309.592 125.457 303.824 137.889 291.992V271.563C125.062 260.073 108.803 253.941 90.5918 253.941C77.9949 253.941 67.8283 256.307 60.8471 260.946C53.9322 265.54 50.0502 272.418 50.0502 281.766C50.0502 291.115 53.9322 297.993 60.8471 302.587ZM139.071 271.037C125.958 259.116 109.268 252.758 90.5918 252.758C65.1598 252.758 48.8675 262.295 48.8675 281.766C48.8675 301.238 65.1598 310.775 90.5918 310.775C108.474 310.775 126.355 304.814 139.071 292.496V271.037ZM264.812 428.397H217.922V138.314H264.812V158.183C265.203 157.812 265.597 157.445 265.995 157.081C281.801 142.62 303.546 133.546 326.802 133.546C383.23 133.546 415.814 175.27 415.814 241.234C415.814 307.198 383.23 348.923 326.802 348.923C303.546 348.923 281.801 339.848 265.995 325.388C265.597 325.024 265.203 324.656 264.812 324.285V428.397ZM265.995 326.982V429.58H216.739V137.132H265.995V155.487C281.942 141.253 303.63 132.363 326.802 132.363C355.334 132.363 377.939 142.926 393.386 161.907C408.807 180.857 416.997 208.073 416.997 241.234C416.997 274.396 408.807 301.612 393.386 320.561C377.939 339.542 355.334 350.105 326.802 350.105C303.63 350.105 281.942 341.215 265.995 326.982ZM265.995 288.07C278.092 301.492 297.837 309.195 314.881 309.195C332.843 309.195 345.774 302.773 354.261 291.2C362.793 279.565 366.947 262.569 366.947 241.234C366.947 219.899 362.793 202.903 354.261 191.268C345.774 179.696 332.843 173.274 314.881 173.274C297.837 173.274 278.092 180.977 265.995 194.398V288.07ZM264.812 288.522C277.131 302.43 297.397 310.377 314.881 310.377C351.44 310.377 368.129 284.151 368.129 241.234C368.129 198.318 351.44 172.091 314.881 172.091C297.397 172.091 277.131 180.039 264.812 193.947V288.522ZM487.093 428.397H440.203V138.314H487.093V158.183C487.484 157.812 487.878 157.445 488.276 157.081C504.082 142.62 525.827 133.546 549.083 133.546C605.51 133.546 638.095 175.27 638.095 241.234C638.095 307.198 605.51 348.923 549.083 348.923C525.827 348.923 504.082 339.848 488.276 325.388C487.878 325.024 487.484 324.656 487.093 324.285V428.397ZM488.276 326.982V429.58H439.02V137.132H488.276V155.487C504.223 141.253 525.911 132.363 549.083 132.363C577.615 132.363 600.22 142.926 615.667 161.907C631.088 180.857 639.278 208.073 639.278 241.234C639.278 274.396 631.088 301.612 615.667 320.561C600.22 339.542 577.615 350.105 549.083 350.105C525.911 350.105 504.223 341.215 488.276 326.982ZM488.276 288.07C500.373 301.492 520.117 309.195 537.162 309.195C555.124 309.195 568.055 302.773 576.542 291.2C585.074 279.565 589.228 262.569 589.228 241.234C589.228 219.899 585.074 202.903 576.542 191.268C568.055 179.696 555.124 173.274 537.162 173.274C520.117 173.274 500.373 180.977 488.276 194.398V288.07ZM487.093 288.522C499.412 302.43 519.678 310.377 537.162 310.377C573.721 310.377 590.41 284.151 590.41 241.234C590.41 198.318 573.721 172.091 537.162 172.091C519.678 172.091 499.412 180.039 487.093 193.947V288.522ZM828.999 162.437C847.074 181.57 857.188 208.801 857.188 241.234C857.188 273.667 847.074 300.899 828.999 320.031C810.917 339.171 784.961 350.105 753.483 350.105C722.004 350.105 696.048 339.171 677.966 320.031C659.891 300.899 649.777 273.667 649.777 241.234C649.777 208.801 659.891 181.57 677.966 162.437C696.048 143.298 722.004 132.363 753.483 132.363C784.961 132.363 810.917 143.298 828.999 162.437ZM792.934 291.37C802.109 279.622 807.137 262.524 807.137 241.234C807.137 219.945 802.109 202.847 792.934 191.098C783.787 179.386 770.433 172.877 753.483 172.877C736.533 172.877 723.178 179.386 714.032 191.098C704.856 202.847 699.828 219.945 699.828 241.234C699.828 262.524 704.856 279.622 714.032 291.37C723.178 303.082 736.533 309.592 753.483 309.592C770.433 309.592 783.787 303.082 792.934 291.37ZM878.584 345.337V137.132H927.839V345.337H878.584ZM926.657 344.154H879.767V138.314H926.657V344.154ZM903.212 49.3122C920.136 49.3122 933.403 62.1389 933.403 79.1057C933.403 96.0726 920.136 108.899 903.212 108.899C886.288 108.899 873.021 96.0726 873.021 79.1057C873.021 62.1389 886.288 49.3122 903.212 49.3122ZM1102.59 345.337V217.392C1102.59 203.036 1099.44 191.929 1093.13 184.426C1086.86 176.96 1077.29 172.877 1064.04 172.877C1041.59 172.877 1021 185.959 1009.98 199.918V345.337H960.729V137.132H1009.98V159.357C1026.01 144.203 1049.02 132.363 1077.94 132.363C1099.85 132.363 1118.36 139.201 1131.39 152.487C1144.42 165.772 1151.85 185.37 1151.85 210.636V345.337H1102.59ZM1009.98 160.994C1009.59 161.379 1009.19 161.767 1008.8 162.157V138.314H961.911V344.154H1008.8V199.51C1019.93 185.205 1040.99 171.694 1064.04 171.694C1091.06 171.694 1103.77 188.384 1103.77 217.392V344.154H1150.66V210.636C1150.66 160.567 1121.26 133.546 1077.94 133.546C1048.87 133.546 1025.85 145.646 1009.98 160.994ZM1287.33 348.795L1286.27 348.907C1278.67 349.707 1269.49 350.105 1261.11 350.105C1236.13 350.105 1217.96 344.613 1206.07 332.361C1194.18 320.118 1188.8 301.366 1188.8 275.408V176.85H1152.64V137.132H1188.8V75.5388H1238.05V137.132H1287.33V176.85H1238.05V276.998C1238.05 288.449 1239.94 296.516 1244.61 301.742C1249.24 306.935 1256.87 309.592 1269.06 309.592C1275.03 309.592 1281.34 309.591 1286.05 309.199L1287.33 309.092V348.795ZM1236.87 76.7215V138.314H1286.14V175.668H1236.87V276.998C1236.87 300.046 1244.42 310.775 1269.06 310.775C1274.54 310.775 1280.35 310.775 1284.96 310.466C1285.36 310.439 1285.76 310.409 1286.14 310.377V347.73C1278.59 348.525 1269.45 348.923 1261.11 348.923C1211.44 348.923 1189.98 327.067 1189.98 275.408V175.668H1153.82V138.314H1189.98V76.7215H1236.87ZM753.483 133.546C815.87 133.546 856.005 176.86 856.005 241.234C856.005 305.609 815.87 348.923 753.483 348.923C691.095 348.923 650.96 305.609 650.96 241.234C650.96 176.86 691.095 133.546 753.483 133.546ZM753.483 310.775C788.054 310.775 808.32 284.151 808.32 241.234C808.32 198.318 788.054 171.694 753.483 171.694C718.911 171.694 698.645 198.318 698.645 241.234C698.645 284.151 718.911 310.775 753.483 310.775ZM903.212 50.4948C919.504 50.4948 932.22 62.8134 932.22 79.1057C932.22 95.3981 919.504 107.717 903.212 107.717C886.919 107.717 874.203 95.3981 874.203 79.1057C874.203 62.8134 886.919 50.4948 903.212 50.4948Z" fill="#002D4B"/>
<path fill-rule="evenodd" clip-rule="evenodd" d="M1917.59 399.465C1939.93 399.869 1972.17 401.877 1972.17 399.009C1972.17 394.731 1937.08 393.091 1919.45 392.095C1768.25 383.556 1511.22 384.511 1313.7 400.046C1304.29 400.786 1284.36 401.654 1289.39 413.009C1292.35 419.68 1297.62 419.531 1315.36 417.218C1487.86 394.73 1766.99 396.737 1917.59 399.465Z" fill="#0089E5"/>
<path fill-rule="evenodd" clip-rule="evenodd" d="M1366.07 141.475V268.237C1367.9 261.373 1370 253.39 1372.38 244.29C1374.75 235.197 1377.5 226.183 1380.61 217.251C1383.72 208.328 1387.1 200.087 1390.76 192.53C1394.42 184.983 1398.26 179.486 1402.29 176.05C1403.75 175.021 1406.49 174.248 1410.52 173.733C1414.54 173.217 1417.83 172.959 1420.4 172.959C1422.22 172.959 1424.51 173.217 1427.26 173.733C1430 174.248 1432.65 175.021 1435.21 176.05C1437.77 177.081 1440.06 178.369 1442.07 179.914C1444.08 181.458 1445.27 183.261 1445.64 185.321V268.752V273.386C1445.64 275.448 1446 276.478 1446.73 276.478C1447.45 276.478 1449.54 271.843 1453 262.574C1456.45 253.301 1460.54 242.318 1465.28 229.611C1470.01 216.914 1475.1 203.86 1480.56 190.471C1486.01 177.081 1490.91 166.442 1495.29 158.541C1496.01 157.172 1498.46 156.4 1502.64 156.222C1506.83 156.054 1510.56 155.965 1513.83 155.965C1516.37 155.965 1519.83 156.737 1524.19 158.282C1528.56 159.827 1532.84 161.977 1537.03 164.72C1541.22 167.472 1544.87 170.562 1547.99 173.991C1551.09 177.427 1552.65 181.031 1552.65 184.807C1552.65 185.498 1551.55 187.468 1549.36 190.728C1547.16 193.996 1545.7 197.344 1544.97 200.772C1542.4 210.387 1540.66 219.826 1539.75 229.096C1538.84 238.367 1538.38 250.212 1538.38 264.633C1538.38 270.813 1538.66 276.992 1539.21 283.173C1539.75 289.353 1540.66 294.938 1541.95 299.911C1543.23 304.891 1544.97 308.923 1547.16 312.013C1549.36 315.103 1552.28 316.649 1555.94 316.649C1561.06 316.649 1565.63 315.023 1569.66 311.756C1573.68 308.498 1577.16 304.119 1580.09 298.623C1583.01 293.135 1585.58 286.697 1587.77 279.31C1589.97 271.931 1591.79 264.294 1593.26 256.392C1595.09 248.152 1598.38 244.032 1603.14 244.032C1606.06 244.032 1607.98 244.723 1608.9 246.091C1609.81 247.468 1610.27 250.558 1610.27 255.362C1610.27 258.114 1610.08 259.997 1609.72 261.028C1609.35 265.493 1607.8 272.447 1605.06 281.886C1602.31 291.333 1598.47 300.772 1593.53 310.212C1588.59 319.657 1582.47 327.898 1575.15 334.931C1567.83 341.965 1559.42 345.49 1549.91 345.49C1538.61 345.49 1529.35 342.994 1522.13 338.022C1514.9 333.048 1509.3 326.354 1505.32 317.936C1501.34 309.527 1498.55 299.83 1496.92 288.838C1495.29 277.854 1494.48 266.355 1494.48 254.332V250.727L1497.77 208.496C1492.65 217.767 1487.9 227.552 1483.51 237.852C1479.12 248.152 1475.82 256.222 1473.63 262.058C1473.26 263.779 1472.26 267.385 1470.61 272.871C1468.96 278.369 1467.13 284.461 1465.12 291.154C1463.11 297.849 1461.37 304.465 1459.91 310.983C1458.44 317.509 1457.71 322.829 1457.71 326.948C1457.71 328.671 1456.07 330.217 1452.77 331.583C1449.48 332.961 1445.27 333.644 1440.15 333.644C1432.1 333.644 1425.7 332.614 1420.95 330.553C1416.19 328.494 1412.62 325.146 1410.25 320.511C1407.86 315.877 1406.4 309.784 1405.85 302.228C1405.31 294.68 1405.03 285.579 1405.03 274.932V236.307C1405.03 233.563 1404.94 230.818 1404.76 228.067C1404.57 225.323 1403.93 223.608 1402.84 222.917C1401 223.608 1398.72 228.067 1395.98 236.307C1393.23 244.547 1390.67 254.59 1388.29 266.435C1385.91 278.281 1383.81 290.729 1381.98 303.773C1380.15 316.825 1379.24 328.494 1379.24 338.794C1379.24 342.568 1377.13 344.797 1372.93 345.49C1368.72 346.173 1364.05 346.519 1358.93 346.519C1357.47 346.519 1355 346.263 1351.53 345.747C1348.05 345.232 1344.57 344.628 1341.1 343.944C1337.62 343.253 1334.42 342.311 1331.5 341.113C1328.56 339.906 1326.74 338.447 1326.01 336.734C1324.17 332.275 1322.8 324.888 1321.89 314.588C1320.98 304.287 1320.52 288.322 1320.52 266.692C1320.52 253.994 1320.8 239.228 1321.34 222.401C1321.89 205.584 1322.53 185.836 1323.26 163.174C1323.26 160.084 1323.08 156.054 1322.72 151.073C1322.35 146.099 1322.17 145.911 1322.17 145.22C1322.17 142.475 1323.35 140.842 1325.73 140.328C1328.11 139.811 1329.75 139.554 1330.95 139.554C1340.22 139.554 1347.65 141.132 1353.87 141.132C1358.49 141.132 1366.07 141.475 1366.07 141.475Z" fill="#0089E5"/>
<path fill-rule="evenodd" clip-rule="evenodd" d="M1695.59 176.428C1695.59 173.7 1694.77 170.795 1693.12 167.722C1691.47 164.65 1688.45 163.113 1684.05 163.113C1677.45 163.113 1671.76 166.362 1667 172.843C1662.24 179.333 1658.29 186.757 1655.18 195.12C1652.07 203.489 1649.77 211.508 1648.31 219.189C1646.84 226.87 1646.11 231.912 1646.11 234.297V235.833C1646.11 238.905 1646.39 241.386 1646.94 243.258C1647.49 245.138 1649.41 246.074 1652.71 246.074H1655.46C1662.79 246.074 1669.01 243.514 1674.15 238.393C1679.28 233.272 1683.4 227.127 1686.52 219.957C1689.63 212.787 1691.93 205.45 1693.39 197.936C1694.86 190.431 1695.59 184.285 1695.59 179.501V176.428ZM1760.47 259.937C1760.47 268.475 1758.82 278.037 1755.52 288.615C1752.22 299.201 1747.09 309.018 1740.13 318.061C1733.16 327.111 1724.27 334.704 1713.46 340.849C1702.65 346.995 1689.73 350.067 1674.7 350.067C1660.41 350.067 1648.31 347.675 1638.42 342.897C1628.52 338.121 1620.36 331.631 1613.95 323.438C1607.53 315.244 1602.95 305.602 1600.2 294.504C1597.45 283.414 1596.08 271.715 1596.08 259.425C1596.08 247.478 1597.54 234.332 1600.48 219.992C1603.41 205.654 1607.99 192.258 1614.22 179.792C1620.45 167.333 1628.33 156.923 1637.87 148.553C1647.39 140.192 1658.94 136.006 1672.5 136.006C1679.1 136.006 1685.33 137.287 1691.2 139.847C1697.05 142.409 1702.19 145.736 1706.59 149.833C1710.99 153.93 1714.47 158.715 1717.04 164.172C1719.6 169.637 1721.07 175.27 1721.44 181.073L1721.99 188.242C1721.99 196.435 1720.52 205.396 1717.59 215.127C1714.65 224.857 1710.44 233.907 1704.94 242.27C1699.44 250.639 1692.66 257.632 1684.6 263.266C1676.53 268.899 1667.37 271.715 1657.11 271.715C1655.27 271.715 1652.99 271.546 1650.24 271.203C1647.49 270.867 1644.82 270.355 1642.26 269.667V284.518C1642.26 286.91 1643.09 290.327 1644.74 294.76C1646.39 299.201 1648.86 303.552 1652.16 307.818C1655.46 312.09 1659.76 315.845 1665.08 319.085C1670.39 322.333 1676.9 323.95 1684.6 323.95C1695.22 323.95 1703.93 321.988 1710.71 318.061C1717.49 314.139 1723.08 309.099 1727.48 302.952C1731.88 296.808 1735.26 289.894 1737.65 282.214C1740.03 274.531 1741.96 267.106 1743.43 259.937C1744.53 255.159 1745.63 251.919 1746.73 250.206C1747.83 248.503 1749.66 247.645 1752.22 247.645C1757.72 247.645 1760.47 250.55 1760.47 256.352V259.937Z" fill="#0089E5"/>
<path fill-rule="evenodd" clip-rule="evenodd" d="M1855.21 177.35C1855.21 176.323 1854.38 175.126 1852.75 173.752C1851.11 172.387 1849.1 171.014 1846.74 169.64C1844.36 168.275 1841.91 167.07 1839.36 166.042C1836.81 165.013 1834.63 164.499 1832.8 164.499C1825.52 164.499 1819.05 168.7 1813.4 177.094C1807.75 185.494 1803.01 195.856 1799.19 208.193C1795.37 220.529 1792.54 233.726 1790.72 247.774C1788.89 261.83 1787.99 274.335 1787.99 285.298C1787.99 289.411 1788.17 294.213 1788.53 299.692C1788.89 305.178 1789.81 310.318 1791.27 315.111C1792.73 319.915 1794.73 324.029 1797.28 327.45C1799.83 330.878 1803.29 332.59 1807.66 332.59C1812.4 332.59 1816.77 330.019 1820.78 324.879C1824.78 319.739 1828.43 313.057 1831.7 304.832C1834.99 296.608 1837.99 287.354 1840.73 277.074C1843.46 266.794 1845.82 256.601 1847.83 246.488C1849.83 236.383 1851.38 226.787 1852.47 217.704C1853.56 208.626 1854.29 201.341 1854.67 195.856L1855.21 177.35ZM1971.46 251.886C1970.72 259.429 1969.16 267.999 1966.78 277.587C1964.38 287.187 1960.9 296.269 1956.31 304.832C1951.71 313.402 1945.65 320.598 1938.13 326.422C1930.6 332.253 1921.5 335.159 1910.86 335.159C1895.06 335.159 1883.58 331.739 1876.42 324.879C1869.26 318.028 1863.28 307.401 1858.51 293.008L1857.96 295.579C1856.49 301.064 1854.74 307.064 1852.73 313.57C1850.71 320.084 1847.95 325.995 1844.46 331.304C1840.97 336.622 1836.65 341.072 1831.51 344.669C1826.37 348.268 1819.76 350.067 1811.68 350.067C1806.17 350.067 1800.75 349.12 1795.43 347.24C1790.1 345.351 1784.49 343.039 1778.62 340.3C1770.17 336.187 1763.56 330.71 1758.79 323.85C1754.01 317 1750.52 309.972 1748.32 302.776C1746.12 295.579 1744.82 288.64 1744.46 281.957C1744.09 275.274 1743.91 270.054 1743.91 266.279V257.54C1743.91 255.484 1744.46 251.035 1745.57 244.176C1746.67 237.323 1748.41 229.356 1750.8 220.272C1753.18 211.197 1756.12 201.687 1759.62 191.743C1763.1 181.808 1767.33 172.724 1772.29 164.499C1777.25 156.275 1782.94 149.424 1789.37 143.939C1795.79 138.461 1803.05 135.713 1811.13 135.713C1819.95 135.713 1828.49 137.087 1836.75 139.826C1845.01 142.571 1850.98 144.629 1854.66 145.994C1855.02 139.826 1855.29 132.292 1855.48 123.377C1855.66 114.469 1855.84 105.642 1856.03 96.9044C1856.22 88.1657 1856.31 80.0288 1856.31 72.4878V55.5242C1856.31 46.6165 1856.12 45.1556 1855.76 38.8096C1855.39 32.4725 1854.74 27.0752 1853.83 22.6178C1852.91 18.1675 1851.9 14.5699 1850.8 11.8224C1849.7 9.08463 1848.41 6.68212 1846.94 4.62636C1853.18 2.91556 1859.34 1.71871 1865.4 1.02876C1871.46 0.344975 1877.06 0 1882.21 0C1890.65 0 1897.17 0.602826 1901.76 1.7988C1906.35 3.00445 1908.65 6.00009 1908.65 10.7945C1908.65 12.8512 1908.1 18.8513 1907 28.786C1905.9 38.7296 1904.79 45.5006 1903.69 61.4354C1902.59 77.3711 1901.49 95.7965 1900.39 116.694C1899.29 137.602 1898.73 159.874 1898.73 183.519V235.436C1898.73 245.035 1898.91 254.2 1899.29 262.938C1899.65 271.676 1900.47 279.387 1901.76 286.068C1903.05 292.751 1904.97 298.069 1907.55 302.004C1910.12 305.948 1913.79 307.917 1918.57 307.917C1929.22 307.917 1937.21 302.181 1942.54 290.695C1947.86 279.218 1952.18 261.139 1955.48 236.466C1955.85 233.726 1956.59 231.325 1957.69 229.269C1958.79 227.212 1961.17 226.185 1964.85 226.185C1968.16 226.185 1970.27 228.159 1971.19 232.096C1972.1 236.039 1972.37 239.895 1972.01 243.661L1971.46 251.886Z" fill="#0089E5"/>
</svg>
